<svg width="96" height="96" viewBox="0 0 96 96" fill="none" xmlns="http://www.w3.org/2000/svg">
<path d="M93.4163 47.7082C93.4163 72.9521 72.9521 93.4163 47.7082 93.4163C22.4642 93.4163 2 72.9521 2 47.7082C2 22.4642 22.4642 2 47.7082 2C72.9521 2 93.4163 22.4642 93.4163 47.7082Z" stroke="white" stroke-width="4"/>
<path d="M41.7335 66.7321C40.6567 66.7321 39.6279 66.301 38.8684 65.5277L24.0415 50.4227C22.4865 48.8356 22.5066 46.29 24.0897 44.7271C25.6729 43.1724 28.2164 43.1884 29.7714 44.7755L41.617 56.8433L66.1237 29.7873C67.6224 28.1399 70.162 28.0231 71.7973 29.5135C73.4406 31.0079 73.5612 33.5535 72.0704 35.205L44.7069 65.4147C43.9637 66.2364 42.9189 66.7117 41.8139 66.7359C41.7858 66.732 41.7616 66.7321 41.7335 66.7321Z" fill="white"/>
</svg>
