<svg width="79" height="96" viewBox="0 0 79 96" fill="none" xmlns="http://www.w3.org/2000/svg">
<path d="M69.9138 85.6678C69.1427 85.6678 68.5156 86.2949 68.5156 87.066C68.5156 87.8371 69.1427 88.4643 69.9138 88.4643C70.6849 88.4643 71.3121 87.8371 71.3121 87.066C71.3121 86.2949 70.6849 85.6678 69.9138 85.6678ZM74.1087 79.8051V71.7335C74.1087 68.9281 73.2969 66.2075 71.7609 63.8655C71.3375 63.2198 70.4709 63.0397 69.8247 63.4631C69.1789 63.8865 68.9988 64.7534 69.4224 65.3991C70.6587 67.2841 71.3121 69.4746 71.3121 71.7335V78.7951C70.857 78.7185 70.3904 78.6764 69.9138 78.6764C69.4373 78.6764 68.9706 78.7185 68.5156 78.7951V71.7335C68.5156 66.8885 64.5747 62.9467 59.7307 62.9467C54.8857 62.9467 50.9439 66.8885 50.9439 71.7335V79.8025C50.9439 86.1885 45.7477 91.3839 39.3606 91.3839C32.9745 91.3839 27.7791 86.1885 27.7791 79.8025V75.6427C28.2129 75.7982 28.702 75.8835 29.1809 75.8835C29.664 75.8835 30.1329 75.7982 30.5756 75.6417V79.8025C30.5756 84.6465 34.5166 88.5874 39.3606 88.5874C44.2055 88.5874 48.1473 84.6465 48.1473 79.8025V71.7335C48.1473 65.3465 53.3435 60.1501 59.7307 60.1501C61.626 60.1501 63.5069 60.6201 65.1701 61.5094C65.8514 61.8734 66.6984 61.6166 67.0625 60.9356C67.4266 60.2545 67.1695 59.4074 66.4886 59.0433C64.4212 57.9381 62.0844 57.3538 59.7307 57.3538C51.8017 57.3538 45.3508 63.8045 45.3508 71.7337V79.8026C45.3508 83.1046 42.6637 85.791 39.3606 85.791C36.0586 85.791 33.3722 83.1046 33.3722 79.8026V60.705C47.6669 58.6426 58.3547 46.3579 58.3547 31.8287C58.3547 30.0708 57.2042 28.4467 55.5582 27.8706V14.4489C55.5582 9.63245 52.3615 5.49206 47.817 4.21963C47.3488 1.81832 45.2303 0 42.694 0H39.8975C37.0191 0 34.6773 2.34183 34.6773 5.22023C34.6773 8.09863 37.0191 10.4405 39.8975 10.4405H42.694C44.9199 10.4405 46.8238 9.03958 47.5731 7.07379C50.6454 8.16668 52.7616 11.084 52.7616 14.4489V27.8773C51.1322 28.4643 49.9711 30.0505 49.9649 31.9007C49.9261 43.3233 40.6007 52.6164 29.1774 52.6164C24.3789 52.6164 19.6941 50.9351 15.9858 47.8826C15.3898 47.3919 14.5085 47.4771 14.0176 48.0733C13.5267 48.6695 13.6121 49.5508 14.2084 50.0415C18.4157 53.5053 23.7317 55.413 29.1772 55.413C42.1375 55.413 52.7173 44.8696 52.7613 31.9102C52.7639 31.1359 53.3543 30.4731 54.0773 30.4327C54.8686 30.3885 55.558 31.0345 55.558 31.8287C55.558 45.1897 45.5622 56.4514 32.3067 58.0246C31.3197 58.1417 30.5755 58.9773 30.5755 59.9682V71.6885C30.5798 72.4734 29.8916 73.122 29.1076 73.0851C28.375 73.0506 27.7789 72.3886 27.7789 71.6095V59.9682C27.7789 58.9773 27.0347 58.1417 26.0477 58.0246C12.7924 56.4514 2.79655 45.1897 2.79655 31.8287C2.79655 31.0354 3.48525 30.3885 4.27705 30.4327C5.00024 30.4729 5.59068 31.1357 5.59329 31.9102C5.60914 36.5925 7.00033 41.1159 9.61623 44.9915C10.0482 45.6315 10.917 45.8001 11.5576 45.3683C12.1976 44.9363 12.3664 44.0672 11.9344 43.4269C9.62965 40.0125 8.40383 36.0269 8.38985 31.9008C8.38369 30.0506 7.22275 28.4644 5.59311 27.8775V14.4489C5.59311 11.084 7.70935 8.16668 10.7816 7.07379C11.5309 9.03958 13.4348 10.4405 15.6607 10.4405H18.4573C21.3357 10.4405 23.6775 8.09863 23.6775 5.22023C23.6775 2.34183 21.3357 0 18.4573 0H15.6607C13.1244 0 11.0059 1.81832 10.5378 4.21963C5.9932 5.49206 2.79655 9.63245 2.79655 14.4489V27.871C1.14845 28.4484 0 30.0754 0 31.8287C0 46.3579 10.6879 58.6426 24.9825 60.705V79.8025C24.9825 87.7305 31.4325 94.1805 39.3606 94.1805C47.2895 94.1805 53.7404 87.7305 53.7404 79.8025V71.7335C53.7404 68.4305 56.4276 65.7432 59.7307 65.7432C63.0326 65.7432 65.719 68.4305 65.719 71.7335V79.8051C63.2139 81.258 61.5242 83.9675 61.5242 87.066C61.5242 91.6921 65.2878 95.4557 69.9138 95.4557C74.5399 95.4557 78.3035 91.6921 78.3035 87.066C78.3035 83.9675 76.6138 81.258 74.1087 79.8051ZM42.694 7.64391H39.8975C38.5611 7.64391 37.4738 6.55661 37.4738 5.22023C37.4738 3.88385 38.5611 2.79655 39.8975 2.79655H42.694C44.0304 2.79655 45.1177 3.88385 45.1177 5.22023C45.1177 6.55661 44.0304 7.64391 42.694 7.64391ZM15.6607 2.79655H18.4573C19.7936 2.79655 20.8809 3.88385 20.8809 5.22023C20.8809 6.55661 19.7936 7.64391 18.4573 7.64391H15.6607C14.3243 7.64391 13.237 6.55661 13.237 5.22023C13.237 3.88385 14.3243 2.79655 15.6607 2.79655ZM69.9138 92.6591C66.8298 92.6591 64.3207 90.1501 64.3207 87.066C64.3207 83.982 66.8298 81.4729 69.9138 81.4729C72.9979 81.4729 75.5069 83.982 75.5069 87.066C75.5069 90.1501 72.9979 92.6591 69.9138 92.6591Z" fill="white"/>
</svg>
